<?xml version="1.0" standalone="no"?>
<!DOCTYPE svg PUBLIC "-//W3C//DTD SVG 20010904//EN"
 "http://www.w3.org/TR/2001/REC-SVG-20010904/DTD/svg10.dtd">
<svg version="1.0" xmlns="http://www.w3.org/2000/svg"
 width="700.000000pt" height="700.000000pt" viewBox="0 0 700.000000 700.000000"
 preserveAspectRatio="xMidYMid meet">
<metadata>
Created by potrace 1.11, written by Peter Selinger 2001-2013
</metadata>
<g transform="translate(0.000000,700.000000) scale(0.100000,-0.100000)"
fill="#000000" stroke="none">
<path d="M3249 6776 c-2 -2 -42 -7 -89 -10 -98 -7 -132 -11 -255 -31 -175 -28
-249 -43 -385 -79 -52 -14 -104 -28 -114 -31 -257 -65 -801 -312 -861 -391
-63 -83 -34 -198 62 -248 55 -28 85 -20 255 67 90 46 199 98 243 116 44 18 89
36 100 41 97 46 356 124 545 164 115 24 141 29 235 42 28 3 57 8 66 9 16 3
110 12 214 20 57 5 420 5 480 1 148 -11 220 -18 225 -21 3 -2 34 -6 70 -10 35
-3 67 -8 71 -10 3 -3 21 -6 40 -9 57 -7 218 -45 327 -77 214 -62 428 -148 672
-270 130 -65 162 -77 198 -75 94 5 166 109 140 204 -20 72 -40 88 -241 186
-415 204 -827 334 -1202 381 -113 14 -143 18 -170 22 -39 5 -621 14 -626 9z"/>
<path d="M3289 5976 c-2 -2 -47 -7 -100 -10 -53 -4 -107 -9 -120 -11 -13 -3
-44 -7 -69 -10 -37 -4 -112 -17 -230 -40 -187 -36 -489 -133 -678 -217 -191
-85 -461 -239 -597 -341 -243 -182 -422 -351 -629 -597 -39 -46 -167 -220
-187 -255 -23 -38 -27 -103 -10 -147 25 -67 101 -107 177 -95 48 8 52 12 164
162 54 71 118 153 141 180 69 79 268 277 339 336 36 30 67 56 70 59 37 39 299
215 404 270 32 17 73 40 92 51 31 17 210 99 259 118 91 36 270 97 311 106 10
2 64 15 119 28 55 14 116 28 135 31 19 3 44 8 55 10 11 2 40 7 65 10 25 3 54
8 66 10 12 2 57 8 100 11 43 4 95 9 114 11 49 4 397 4 446 0 71 -7 168 -17
194 -21 48 -7 115 -17 140 -20 20 -3 135 -27 241 -50 60 -13 276 -82 344 -110
158 -65 226 -95 322 -145 400 -209 754 -517 1036 -902 83 -112 122 -142 183
-140 113 4 185 118 144 228 -15 37 -162 233 -268 355 -366 422 -850 752 -1377
939 -90 31 -347 107 -395 115 -14 2 -50 9 -80 15 -123 24 -219 39 -285 46 -38
3 -79 8 -90 11 -25 6 -540 15 -546 9z"/>
<path d="M3298 5195 c-1 -1 -34 -6 -73 -10 -90 -8 -132 -14 -220 -30 -22 -4
-47 -9 -55 -10 -166 -31 -419 -119 -615 -215 -321 -158 -587 -360 -816 -620
-150 -171 -252 -322 -359 -535 -99 -195 -173 -404 -204 -580 -3 -16 -8 -41
-11 -55 -3 -14 -8 -45 -11 -70 -3 -25 -7 -52 -9 -60 -27 -98 -27 -580 0 -820
28 -243 93 -528 177 -775 45 -134 58 -154 122 -180 69 -29 159 4 190 69 28 59
25 93 -20 231 -37 112 -63 199 -79 265 -15 62 -35 150 -39 175 -20 108 -26
146 -32 190 -3 28 -8 57 -9 65 -18 93 -25 486 -12 625 28 290 85 501 203 740
145 297 325 523 604 759 271 229 723 431 1075 482 17 2 41 6 55 9 147 30 555
24 720 -10 14 -3 41 -8 60 -11 19 -3 71 -14 115 -25 648 -163 1193 -596 1489
-1185 100 -200 174 -420 200 -599 3 -22 8 -51 11 -65 24 -122 29 -350 11 -443
-28 -142 -108 -273 -226 -370 -54 -45 -186 -110 -253 -126 -228 -54 -468 11
-627 168 -132 132 -186 257 -195 457 -3 60 -10 134 -16 164 -91 476 -512 808
-994 787 -134 -6 -150 -9 -250 -39 -239 -72 -453 -248 -575 -473 -37 -70 -88
-216 -98 -283 -14 -95 -6 -436 12 -528 2 -12 7 -38 10 -58 78 -490 321 -961
682 -1320 309 -309 611 -492 1031 -626 142 -45 168 -48 222 -21 66 34 96 105
79 186 -16 75 -50 99 -223 156 -83 27 -159 53 -170 58 -154 71 -288 141 -365
191 -52 35 -97 66 -100 69 -3 4 -34 29 -69 56 -181 138 -426 422 -525 609 -14
27 -30 54 -34 60 -19 25 -102 218 -131 305 -89 263 -135 604 -108 803 30 216
214 426 437 501 245 82 521 12 698 -177 114 -123 167 -256 171 -434 2 -83 4
-99 22 -192 56 -279 272 -549 539 -672 58 -27 134 -54 172 -62 13 -3 48 -10
78 -16 57 -11 253 -15 305 -5 342 64 604 260 743 557 78 165 98 322 79 603 -7
100 -9 118 -28 230 -83 483 -318 951 -659 1308 -35 37 -67 71 -70 75 -3 4 -43
41 -90 82 -47 41 -87 77 -90 80 -20 22 -184 138 -271 193 -302 189 -719 339
-1034 372 -33 4 -71 9 -85 12 -28 5 -456 13 -462 8z"/>
<path d="M3417 4394 c-1 -1 -41 -4 -88 -8 -48 -3 -93 -8 -100 -10 -8 -3 -32
-8 -53 -11 -209 -30 -552 -174 -711 -297 -5 -5 -44 -35 -85 -67 -127 -98 -255
-235 -349 -372 -160 -231 -262 -488 -301 -759 -15 -103 -20 -359 -9 -490 46
-551 170 -938 447 -1395 105 -173 244 -362 347 -471 11 -11 56 -60 99 -108 44
-48 94 -95 110 -103 70 -36 171 -1 206 72 41 85 22 148 -72 247 -78 82 -148
162 -211 242 -27 34 -54 68 -60 76 -25 31 -137 197 -137 203 0 3 -13 25 -29
49 -43 65 -137 243 -181 342 -79 179 -162 487 -184 681 -3 22 -8 72 -13 110
-10 87 -10 456 1 510 4 22 9 54 12 70 3 17 9 44 15 61 5 17 11 40 13 50 3 10
16 53 31 94 168 464 589 825 1075 924 127 25 170 30 310 30 160 0 233 -9 372
-44 160 -41 306 -105 441 -193 110 -71 123 -82 248 -207 260 -259 393 -568
414 -965 4 -82 14 -112 46 -141 62 -56 134 -63 199 -20 62 41 74 79 66 220 -8
156 -11 180 -42 306 -50 210 -128 392 -238 559 -297 454 -772 746 -1311 807
-54 6 -272 13 -278 8z"/>
<path d="M3413 2774 c-83 -41 -101 -113 -79 -324 57 -539 362 -1029 816 -1311
342 -212 748 -286 1210 -219 151 22 205 68 205 176 0 51 -4 66 -28 97 -43 57
-78 70 -160 63 -38 -3 -72 -8 -75 -10 -12 -7 -203 -19 -282 -18 -347 5 -624
105 -877 316 -31 25 -164 164 -194 201 -193 242 -306 568 -309 895 0 47 -43
113 -87 134 -42 20 -99 20 -140 0z"/>
</g>
</svg>
